<?xml version="1.0" encoding="UTF-8" standalone="no"?>
<svg
   xmlns:dc="http://purl.org/dc/elements/1.1/"
   xmlns:cc="http://creativecommons.org/ns#"
   xmlns:rdf="http://www.w3.org/1999/02/22-rdf-syntax-ns#"
   xmlns:svg="http://www.w3.org/2000/svg"
   xmlns="http://www.w3.org/2000/svg"
   xmlns:sodipodi="http://sodipodi.sourceforge.net/DTD/sodipodi-0.dtd"
   xmlns:inkscape="http://www.inkscape.org/namespaces/inkscape"
   width="448.63028"
   height="502.98999"
   viewBox="0 0 448.63028 502.98999"
   fill="none"
   version="1.1"
   id="svg42"
   sodipodi:docname="Group 44.svg"
   inkscape:version="1.0.2-2 (e86c870879, 2021-01-15)">
  <metadata
     id="metadata48">
    <rdf:RDF>
      <cc:Work
         rdf:about="">
        <dc:format>image/svg+xml</dc:format>
        <dc:type
           rdf:resource="http://purl.org/dc/dcmitype/StillImage" />
      </cc:Work>
    </rdf:RDF>
  </metadata>
  <defs
     id="defs46" />
  <sodipodi:namedview
     pagecolor="#ffffff"
     bordercolor="#666666"
     borderopacity="1"
     objecttolerance="10"
     gridtolerance="10"
     guidetolerance="10"
     inkscape:pageopacity="0"
     inkscape:pageshadow="2"
     inkscape:window-width="1920"
     inkscape:window-height="1003"
     id="namedview44"
     showgrid="false"
     inkscape:zoom="0.55033942"
     inkscape:cx="196.62915"
     inkscape:cy="165.27895"
     inkscape:window-x="-9"
     inkscape:window-y="-9"
     inkscape:window-maximized="1"
     inkscape:current-layer="svg42" />
  <g
     style="fill:none"
     id="g110"
     transform="translate(1.5047618e-5)">
    <path
       d="m 423.815,308.15 c 91.478,50.207 -91.182,194.84 -203.66,194.84 -112.479,0 -316.3237,0 -168.0322,-194.84 C 91.0362,257.022 13.7903,0 126.269,0 238.747,0 266.375,184.245 423.815,308.15 Z"
       fill="#6cd4e2"
       id="path96" />
    <path
       d="m 81.95,297 c -0.5333,0 -1,-0.183 -1.4,-0.55 -0.3667,-0.4 -0.55,-0.867 -0.55,-1.4 V 259.9 c 0,-0.567 0.1833,-1.033 0.55,-1.4 0.4,-0.367 0.8667,-0.55 1.4,-0.55 0.8,0 1.3833,0.333 1.75,1 l 16,31.8 15.7,-31.8 c 0.4,-0.667 0.983,-1 1.75,-1 0.533,0 0.983,0.183 1.35,0.55 0.367,0.367 0.55,0.833 0.55,1.4 v 35.15 c 0,0.533 -0.183,1 -0.55,1.4 -0.367,0.367 -0.817,0.55 -1.35,0.55 -0.567,0 -1.05,-0.183 -1.45,-0.55 -0.367,-0.4 -0.55,-0.867 -0.55,-1.4 v -28.3 l -13.9,28.4 c -0.367,0.633 -0.933,0.95 -1.7,0.95 -0.8333,0 -1.4333,-0.4 -1.8,-1.2 L 83.9,267.2 v 27.85 c 0,0.533 -0.2,1 -0.6,1.4 -0.3667,0.367 -0.8167,0.55 -1.35,0.55 z m 59.022,0.25 c -2.7,0 -5.1,-0.583 -7.2,-1.75 -2.066,-1.2 -3.7,-2.85 -4.9,-4.95 -1.166,-2.1 -1.75,-4.5 -1.75,-7.2 0,-2.733 0.55,-5.133 1.65,-7.2 1.134,-2.1 2.684,-3.75 4.65,-4.95 1.967,-1.2 4.234,-1.8 6.8,-1.8 2.534,0 4.734,0.583 6.6,1.75 1.9,1.133 3.367,2.717 4.4,4.75 1.034,2.033 1.55,4.35 1.55,6.95 0,0.533 -0.166,0.967 -0.5,1.3 -0.333,0.3 -0.766,0.45 -1.3,0.45 h -20.2 c 0.2,1.8 0.75,3.4 1.65,4.8 0.9,1.367 2.084,2.45 3.55,3.25 1.467,0.767 3.134,1.15 5,1.15 1.2,0 2.4,-0.2 3.6,-0.6 1.234,-0.433 2.217,-0.967 2.95,-1.6 0.367,-0.3 0.784,-0.45 1.25,-0.45 0.467,-0.033 0.867,0.083 1.2,0.35 0.434,0.4 0.65,0.833 0.65,1.3 0.034,0.467 -0.15,0.867 -0.55,1.2 -1.1,0.933 -2.5,1.717 -4.2,2.35 -1.7,0.6 -3.333,0.9 -4.9,0.9 z m -0.75,-24.4 c -2.566,0 -4.683,0.8 -6.35,2.4 -1.666,1.567 -2.666,3.617 -3,6.15 h 18.3 c -0.266,-2.533 -1.2,-4.583 -2.8,-6.15 -1.566,-1.6 -3.616,-2.4 -6.15,-2.4 z M 161.185,297 c -0.567,0 -1.033,-0.167 -1.4,-0.5 -0.333,-0.367 -0.5,-0.85 -0.5,-1.45 V 271.6 c 0,-0.6 0.167,-1.067 0.5,-1.4 0.367,-0.367 0.833,-0.55 1.4,-0.55 0.567,0 1.017,0.183 1.35,0.55 0.367,0.333 0.55,0.8 0.55,1.4 v 9.9 h 17.65 v -9.9 c 0,-0.6 0.183,-1.067 0.55,-1.4 0.367,-0.367 0.833,-0.55 1.4,-0.55 0.567,0 1.017,0.183 1.35,0.55 0.333,0.333 0.5,0.8 0.5,1.4 v 23.45 c 0,0.6 -0.167,1.083 -0.5,1.45 -0.333,0.333 -0.783,0.5 -1.35,0.5 -0.567,0 -1.033,-0.167 -1.4,-0.5 -0.367,-0.367 -0.55,-0.85 -0.55,-1.45 v -10.1 h -17.65 v 10.1 c 0,0.6 -0.183,1.083 -0.55,1.45 -0.333,0.333 -0.783,0.5 -1.35,0.5 z m 44.729,0.25 c -2.7,0 -5.1,-0.583 -7.2,-1.75 -2.067,-1.2 -3.7,-2.85 -4.9,-4.95 -1.167,-2.1 -1.75,-4.5 -1.75,-7.2 0,-2.733 0.55,-5.133 1.65,-7.2 1.133,-2.1 2.683,-3.75 4.65,-4.95 1.966,-1.2 4.233,-1.8 6.8,-1.8 2.533,0 4.733,0.583 6.6,1.75 1.9,1.133 3.366,2.717 4.4,4.75 1.033,2.033 1.55,4.35 1.55,6.95 0,0.533 -0.167,0.967 -0.5,1.3 -0.334,0.3 -0.767,0.45 -1.3,0.45 h -20.2 c 0.2,1.8 0.75,3.4 1.65,4.8 0.9,1.367 2.083,2.45 3.55,3.25 1.466,0.767 3.133,1.15 5,1.15 1.2,0 2.4,-0.2 3.6,-0.6 1.233,-0.433 2.216,-0.967 2.95,-1.6 0.366,-0.3 0.783,-0.45 1.25,-0.45 0.466,-0.033 0.866,0.083 1.2,0.35 0.433,0.4 0.65,0.833 0.65,1.3 0.033,0.467 -0.15,0.867 -0.55,1.2 -1.1,0.933 -2.5,1.717 -4.2,2.35 -1.7,0.6 -3.334,0.9 -4.9,0.9 z m -0.75,-24.4 c -2.567,0 -4.684,0.8 -6.35,2.4 -1.667,1.567 -2.667,3.617 -3,6.15 h 18.3 c -0.267,-2.533 -1.2,-4.583 -2.8,-6.15 -1.567,-1.6 -3.617,-2.4 -6.15,-2.4 z m 30.136,24.4 c -2.633,0 -4.967,-0.583 -7,-1.75 -2.033,-1.2 -3.633,-2.85 -4.8,-4.95 -1.133,-2.1 -1.7,-4.5 -1.7,-7.2 0,-2.733 0.6,-5.15 1.8,-7.25 1.2,-2.1 2.85,-3.733 4.95,-4.9 2.1,-1.2 4.483,-1.8 7.15,-1.8 2.7,0 5.083,0.6 7.15,1.8 2.1,1.167 3.733,2.8 4.9,4.9 1.2,2.1 1.817,4.517 1.85,7.25 v 10.2 c 0,2.7 -0.6,5.117 -1.8,7.25 -1.2,2.167 -2.833,3.867 -4.9,5.1 -2.067,1.267 -4.433,1.9 -7.1,1.9 -2.633,0 -4.95,-0.5 -6.95,-1.5 -2,-0.967 -3.65,-2.3 -4.95,-4 -0.367,-0.4 -0.533,-0.833 -0.5,-1.3 0.067,-0.467 0.317,-0.85 0.75,-1.15 0.433,-0.3 0.917,-0.4 1.45,-0.3 0.533,0.1 0.95,0.35 1.25,0.75 0.967,1.2 2.2,2.167 3.7,2.9 1.533,0.733 3.3,1.1 5.3,1.1 1.867,0 3.55,-0.45 5.05,-1.35 1.5,-0.9 2.683,-2.167 3.55,-3.8 0.9,-1.633 1.35,-3.55 1.35,-5.75 v -2.3 c -1,1.9 -2.417,3.4 -4.25,4.5 -1.8,1.1 -3.883,1.65 -6.25,1.65 z m 0.4,-3.5 c 1.967,0 3.7,-0.433 5.2,-1.3 1.533,-0.9 2.733,-2.133 3.6,-3.7 0.867,-1.567 1.3,-3.367 1.3,-5.4 0,-2.033 -0.433,-3.833 -1.3,-5.4 -0.867,-1.6 -2.067,-2.833 -3.6,-3.7 -1.5,-0.9 -3.233,-1.35 -5.2,-1.35 -1.967,0 -3.717,0.45 -5.25,1.35 -1.533,0.867 -2.733,2.1 -3.6,3.7 -0.867,1.567 -1.3,3.367 -1.3,5.4 0,2.033 0.433,3.833 1.3,5.4 0.867,1.567 2.067,2.8 3.6,3.7 1.533,0.867 3.283,1.3 5.25,1.3 z m 35.024,3.25 c -0.566,0 -1.033,-0.167 -1.4,-0.5 -0.333,-0.367 -0.5,-0.833 -0.5,-1.4 V 285 h -4.5 l -8.35,11.45 c -0.3,0.4 -0.733,0.583 -1.3,0.55 -0.533,0 -0.966,-0.167 -1.3,-0.5 -0.366,-0.367 -0.55,-0.767 -0.55,-1.2 0.034,-0.433 0.184,-0.85 0.45,-1.25 l 7.95,-10.9 -7.05,-10.6 c -0.266,-0.433 -0.4,-0.867 -0.4,-1.3 0,-0.433 0.2,-0.833 0.6,-1.2 0.334,-0.3 0.75,-0.433 1.25,-0.4 0.5,0 0.9,0.2 1.2,0.6 l 7.45,11.35 h 4.55 v -10 c 0,-0.6 0.167,-1.067 0.5,-1.4 0.367,-0.367 0.834,-0.55 1.4,-0.55 0.567,0 1.034,0.183 1.4,0.55 0.367,0.333 0.55,0.8 0.55,1.4 v 10 h 4.45 l 7.5,-11.35 c 0.3,-0.4 0.7,-0.6 1.2,-0.6 0.5,-0.033 0.917,0.1 1.25,0.4 0.4,0.367 0.6,0.767 0.6,1.2 0,0.433 -0.133,0.867 -0.4,1.3 l -7.05,10.6 7.95,10.9 c 0.267,0.4 0.417,0.817 0.45,1.25 0.034,0.433 -0.15,0.833 -0.55,1.2 -0.333,0.333 -0.783,0.5 -1.35,0.5 -0.533,0.033 -0.933,-0.15 -1.2,-0.55 L 277.174,285 h -4.5 v 10.1 c 0,0.567 -0.183,1.033 -0.55,1.4 -0.366,0.333 -0.833,0.5 -1.4,0.5 z m 34.067,0.25 c -2.7,0 -5.1,-0.583 -7.2,-1.75 -2.067,-1.2 -3.7,-2.85 -4.9,-4.95 -1.167,-2.1 -1.75,-4.5 -1.75,-7.2 0,-2.733 0.55,-5.133 1.65,-7.2 1.133,-2.1 2.683,-3.75 4.65,-4.95 1.966,-1.2 4.233,-1.8 6.8,-1.8 2.533,0 4.733,0.583 6.6,1.75 1.9,1.133 3.366,2.717 4.4,4.75 1.033,2.033 1.55,4.35 1.55,6.95 0,0.533 -0.167,0.967 -0.5,1.3 -0.334,0.3 -0.767,0.45 -1.3,0.45 h -20.2 c 0.2,1.8 0.75,3.4 1.65,4.8 0.9,1.367 2.083,2.45 3.55,3.25 1.466,0.767 3.133,1.15 5,1.15 1.2,0 2.4,-0.2 3.6,-0.6 1.233,-0.433 2.216,-0.967 2.95,-1.6 0.366,-0.3 0.783,-0.45 1.25,-0.45 0.466,-0.033 0.866,0.083 1.2,0.35 0.433,0.4 0.65,0.833 0.65,1.3 0.033,0.467 -0.15,0.867 -0.55,1.2 -1.1,0.933 -2.5,1.717 -4.2,2.35 -1.7,0.6 -3.334,0.9 -4.9,0.9 z m -0.75,-24.4 c -2.567,0 -4.684,0.8 -6.35,2.4 -1.667,1.567 -2.667,3.617 -3,6.15 h 18.3 c -0.267,-2.533 -1.2,-4.583 -2.8,-6.15 -1.567,-1.6 -3.617,-2.4 -6.15,-2.4 z m 21.013,35.85 c -0.6,0 -1.084,-0.183 -1.45,-0.55 -0.334,-0.333 -0.5,-0.8 -0.5,-1.4 v -23.6 c 0.033,-2.6 0.65,-4.933 1.85,-7 1.233,-2.1 2.883,-3.75 4.95,-4.95 2.1,-1.2 4.45,-1.8 7.05,-1.8 2.666,0 5.05,0.617 7.15,1.85 2.1,1.2 3.75,2.85 4.95,4.95 1.233,2.1 1.85,4.483 1.85,7.15 0,2.633 -0.6,5 -1.8,7.1 -1.167,2.1 -2.767,3.767 -4.8,5 -2.034,1.2 -4.334,1.8 -6.9,1.8 -2.234,0 -4.267,-0.467 -6.1,-1.4 -1.8,-0.967 -3.25,-2.233 -4.35,-3.8 v 14.7 c 0,0.6 -0.184,1.067 -0.55,1.4 -0.334,0.367 -0.784,0.55 -1.35,0.55 z m 11.9,-14.95 c 1.933,0 3.666,-0.45 5.2,-1.35 1.533,-0.9 2.733,-2.133 3.6,-3.7 0.9,-1.6 1.35,-3.383 1.35,-5.35 0,-2 -0.45,-3.783 -1.35,-5.35 -0.867,-1.567 -2.067,-2.8 -3.6,-3.7 -1.534,-0.933 -3.267,-1.4 -5.2,-1.4 -1.9,0 -3.617,0.467 -5.15,1.4 -1.534,0.9 -2.734,2.133 -3.6,3.7 -0.867,1.567 -1.3,3.35 -1.3,5.35 0,1.967 0.433,3.75 1.3,5.35 0.866,1.567 2.066,2.8 3.6,3.7 1.533,0.9 3.25,1.35 5.15,1.35 z"
       fill="#ffffff"
       id="path98" />
  </g>
</svg>
