<?xml version="1.0" encoding="UTF-8" standalone="no"?>
<svg
   xmlns:dc="http://purl.org/dc/elements/1.1/"
   xmlns:cc="http://creativecommons.org/ns#"
   xmlns:rdf="http://www.w3.org/1999/02/22-rdf-syntax-ns#"
   xmlns:svg="http://www.w3.org/2000/svg"
   xmlns="http://www.w3.org/2000/svg"
   xmlns:sodipodi="http://sodipodi.sourceforge.net/DTD/sodipodi-0.dtd"
   xmlns:inkscape="http://www.inkscape.org/namespaces/inkscape"
   width="118.7mm"
   height="133.08176mm"
   viewBox="0 0 118.7 133.08176"
   version="1.1"
   id="svg134"
   inkscape:version="1.0.2-2 (e86c870879, 2021-01-15)"
   sodipodi:docname="Group 47.svg">
  <defs
     id="defs128" />
  <sodipodi:namedview
     id="base"
     pagecolor="#ffffff"
     bordercolor="#666666"
     borderopacity="1.0"
     inkscape:pageopacity="0.0"
     inkscape:pageshadow="2"
     inkscape:zoom="0.35"
     inkscape:cx="404.31495"
     inkscape:cy="554.35023"
     inkscape:document-units="mm"
     inkscape:current-layer="layer1"
     inkscape:document-rotation="0"
     showgrid="false"
     inkscape:window-width="1710"
     inkscape:window-height="1032"
     inkscape:window-x="32"
     inkscape:window-y="0"
     inkscape:window-maximized="0" />
  <metadata
     id="metadata131">
    <rdf:RDF>
      <cc:Work
         rdf:about="">
        <dc:format>image/svg+xml</dc:format>
        <dc:type
           rdf:resource="http://purl.org/dc/dcmitype/StillImage" />
        <dc:title></dc:title>
      </cc:Work>
    </rdf:RDF>
  </metadata>
  <g
     inkscape:label="Слой 1"
     inkscape:groupmode="layer"
     id="layer1"
     transform="translate(1.1416649,-1.494834)">
    <g
       style="fill:none"
       id="g150"
       transform="matrix(0.26458333,0,0,0.26458333,-1.1416564,1.494764)">
      <path
         d="m 419.169,220.82 c 5,196.55 -115,173.725 -197.501,218.107 C -70.3315,624.064 10.1683,358.877 10.1683,260.13 10.1683,39.4875 158.669,115.994 221.668,81.3336 561.168,-128.319 419.169,122.074 419.169,220.82 Z"
         fill="#ea43e3"
         id="path136" />
      <path
         d="m 92.2,279.956 c -0.6,0 -1.0833,-0.184 -1.45,-0.55 -0.3333,-0.334 -0.5,-0.8 -0.5,-1.4 v -8.3 c 0,-0.6 0.1667,-1.067 0.5,-1.4 0.3667,-0.367 0.85,-0.55 1.45,-0.55 h 1.7 l 14.05,-34.05 c 0.4,-0.9 1.017,-1.35 1.85,-1.35 0.9,0 1.533,0.45 1.9,1.35 l 14.05,34.05 h 1.85 c 0.6,0 1.067,0.183 1.4,0.55 0.367,0.333 0.55,0.8 0.55,1.4 v 8.3 c 0,0.6 -0.183,1.066 -0.55,1.4 -0.333,0.366 -0.8,0.55 -1.4,0.55 -0.6,0 -1.083,-0.184 -1.45,-0.55 -0.333,-0.334 -0.5,-0.8 -0.5,-1.4 v -6.6 h -31.5 v 6.6 c 0,0.6 -0.1833,1.066 -0.55,1.4 -0.3333,0.366 -0.8,0.55 -1.4,0.55 z m 5.7,-12.2 h 23.95 l -12.05,-29.45 z m 49.297,3.95 c -2.367,0 -4.483,-0.484 -6.35,-1.45 -1.867,-1 -3.35,-2.45 -4.45,-4.35 -1.067,-1.9 -1.6,-4.217 -1.6,-6.95 v -13 c 0,-0.534 0.183,-0.984 0.55,-1.35 0.367,-0.367 0.817,-0.55 1.35,-0.55 0.567,0 1.033,0.183 1.4,0.55 0.367,0.366 0.55,0.816 0.55,1.35 v 13 c 0,3.066 0.85,5.35 2.55,6.85 1.7,1.5 3.833,2.25 6.4,2.25 1.633,0 3.1,-0.317 4.4,-0.95 1.333,-0.634 2.383,-1.5 3.15,-2.6 0.767,-1.1 1.15,-2.35 1.15,-3.75 v -14.8 c 0,-0.567 0.167,-1.017 0.5,-1.35 0.367,-0.367 0.833,-0.55 1.4,-0.55 0.567,0 1.033,0.183 1.4,0.55 0.367,0.333 0.55,0.783 0.55,1.35 v 23.5 c 0,0.6 -0.183,1.083 -0.55,1.45 -0.367,0.333 -0.833,0.5 -1.4,0.5 -0.567,0 -1.033,-0.167 -1.4,-0.5 -0.333,-0.367 -0.5,-0.85 -0.5,-1.45 v -1.7 c -1.1,1.233 -2.433,2.2 -4,2.9 -1.567,0.7 -3.267,1.05 -5.1,1.05 z m 30.588,0.15 c -2.167,0 -4.217,-0.417 -6.15,-1.25 -1.934,-0.867 -3.384,-1.934 -4.35,-3.2 -0.334,-0.434 -0.467,-0.9 -0.4,-1.4 0.1,-0.5 0.4,-0.9 0.9,-1.2 0.366,-0.234 0.8,-0.284 1.3,-0.15 0.533,0.1 0.966,0.333 1.3,0.7 0.833,0.866 1.883,1.583 3.15,2.15 1.266,0.566 2.666,0.85 4.2,0.85 2,0 3.616,-0.417 4.85,-1.25 1.266,-0.834 1.9,-2.017 1.9,-3.55 0,-1.334 -0.5,-2.45 -1.5,-3.35 -0.967,-0.9 -2.184,-1.384 -3.65,-1.45 h -2.55 c -0.634,0 -1.15,-0.15 -1.55,-0.45 -0.4,-0.334 -0.6,-0.734 -0.6,-1.2 0,-0.467 0.2,-0.85 0.6,-1.15 0.4,-0.3 0.916,-0.45 1.55,-0.45 h 2.55 c 1.233,-0.034 2.233,-0.45 3,-1.25 0.766,-0.8 1.15,-1.784 1.15,-2.95 0,-1.2 -0.534,-2.184 -1.6,-2.95 -1.034,-0.767 -2.434,-1.15 -4.2,-1.15 -1.634,0 -3,0.266 -4.1,0.8 -1.1,0.533 -1.984,1.216 -2.65,2.05 -0.367,0.4 -0.8,0.65 -1.3,0.75 -0.467,0.066 -0.917,-0.034 -1.35,-0.3 -0.434,-0.234 -0.684,-0.6 -0.75,-1.1 -0.034,-0.5 0.116,-0.967 0.45,-1.4 1.066,-1.234 2.416,-2.267 4.05,-3.1 1.666,-0.834 3.533,-1.25 5.6,-1.25 1.866,0 3.516,0.333 4.95,1 1.466,0.633 2.616,1.516 3.45,2.65 0.833,1.1 1.25,2.333 1.25,3.7 0,1.4 -0.45,2.633 -1.35,3.7 -0.867,1.033 -2,1.783 -3.4,2.25 1.7,0.333 3.083,1.116 4.15,2.35 1.066,1.233 1.6,2.683 1.6,4.35 0,1.566 -0.467,2.966 -1.4,4.2 -0.9,1.233 -2.15,2.216 -3.75,2.95 -1.567,0.7 -3.35,1.05 -5.35,1.05 z m 29.083,-0.2 c -2.566,0 -4.866,-0.6 -6.9,-1.8 -2.033,-1.234 -3.65,-2.9 -4.85,-5 -1.166,-2.1 -1.75,-4.467 -1.75,-7.1 0,-2.667 0.6,-5.05 1.8,-7.15 1.234,-2.1 2.9,-3.75 5,-4.95 2.1,-1.234 4.467,-1.85 7.1,-1.85 2.634,0 4.984,0.616 7.05,1.85 2.1,1.2 3.75,2.85 4.95,4.95 1.234,2.1 1.867,4.483 1.9,7.15 v 11.75 c 0,0.566 -0.183,1.033 -0.55,1.4 -0.366,0.333 -0.833,0.5 -1.4,0.5 -0.566,0 -1.033,-0.167 -1.4,-0.5 -0.366,-0.367 -0.55,-0.834 -0.55,-1.4 v -3.05 c -1.133,1.6 -2.6,2.866 -4.4,3.8 -1.8,0.933 -3.8,1.4 -6,1.4 z m 0.4,-3.5 c 1.934,0 3.65,-0.45 5.15,-1.35 1.534,-0.9 2.734,-2.134 3.6,-3.7 0.9,-1.6 1.35,-3.384 1.35,-5.35 0,-2 -0.45,-3.784 -1.35,-5.35 -0.866,-1.567 -2.066,-2.8 -3.6,-3.7 -1.5,-0.934 -3.216,-1.4 -5.15,-1.4 -1.9,0 -3.616,0.466 -5.15,1.4 -1.533,0.9 -2.75,2.133 -3.65,3.7 -0.9,1.566 -1.35,3.35 -1.35,5.35 0,1.966 0.45,3.75 1.35,5.35 0.9,1.566 2.117,2.8 3.65,3.7 1.534,0.9 3.25,1.35 5.15,1.35 z m 33.288,3.55 c -2.366,0 -4.483,-0.484 -6.35,-1.45 -1.866,-1 -3.35,-2.45 -4.45,-4.35 -1.066,-1.9 -1.6,-4.217 -1.6,-6.95 v -13 c 0,-0.534 0.184,-0.984 0.55,-1.35 0.367,-0.367 0.817,-0.55 1.35,-0.55 0.567,0 1.034,0.183 1.4,0.55 0.367,0.366 0.55,0.816 0.55,1.35 v 13 c 0,3.066 0.85,5.35 2.55,6.85 1.7,1.5 3.834,2.25 6.4,2.25 1.634,0 3.1,-0.317 4.4,-0.95 1.334,-0.634 2.384,-1.5 3.15,-2.6 0.767,-1.1 1.15,-2.35 1.15,-3.75 v -14.8 c 0,-0.567 0.167,-1.017 0.5,-1.35 0.367,-0.367 0.834,-0.55 1.4,-0.55 0.567,0 1.034,0.183 1.4,0.55 0.367,0.333 0.55,0.783 0.55,1.35 v 23.5 c 0,0.6 -0.183,1.083 -0.55,1.45 -0.366,0.333 -0.833,0.5 -1.4,0.5 -0.566,0 -1.033,-0.167 -1.4,-0.5 -0.333,-0.367 -0.5,-0.85 -0.5,-1.45 v -1.7 c -1.1,1.233 -2.433,2.2 -4,2.9 -1.566,0.7 -3.266,1.05 -5.1,1.05 z m 0.55,-31.2 c -1.633,0 -3.1,-0.267 -4.4,-0.8 -1.3,-0.567 -2.333,-1.334 -3.1,-2.3 -0.733,-0.967 -1.1,-2.05 -1.1,-3.25 0,-0.534 0.167,-0.984 0.5,-1.35 0.367,-0.367 0.8,-0.55 1.3,-0.55 0.534,0 0.967,0.183 1.3,0.55 0.334,0.366 0.5,0.866 0.5,1.5 0,0.933 0.484,1.683 1.45,2.25 0.967,0.566 2.15,0.85 3.55,0.85 1.434,0 2.617,-0.284 3.55,-0.85 0.967,-0.567 1.45,-1.317 1.45,-2.25 0,-0.634 0.167,-1.134 0.5,-1.5 0.367,-0.367 0.8,-0.55 1.3,-0.55 0.534,0 0.967,0.183 1.3,0.55 0.334,0.366 0.5,0.816 0.5,1.35 0,1.2 -0.383,2.283 -1.15,3.25 -0.733,0.966 -1.75,1.733 -3.05,2.3 -1.3,0.533 -2.766,0.8 -4.4,0.8 z m 23.288,30.9 c -0.567,0 -1.033,-0.167 -1.4,-0.5 -0.333,-0.367 -0.5,-0.85 -0.5,-1.45 v -23.45 c 0,-0.6 0.167,-1.067 0.5,-1.4 0.367,-0.367 0.833,-0.55 1.4,-0.55 0.567,0 1.017,0.183 1.35,0.55 0.367,0.333 0.55,0.8 0.55,1.4 v 9.9 h 17.65 v -9.9 c 0,-0.6 0.183,-1.067 0.55,-1.4 0.367,-0.367 0.833,-0.55 1.4,-0.55 0.567,0 1.017,0.183 1.35,0.55 0.333,0.333 0.5,0.8 0.5,1.4 v 23.45 c 0,0.6 -0.167,1.083 -0.5,1.45 -0.333,0.333 -0.783,0.5 -1.35,0.5 -0.567,0 -1.033,-0.167 -1.4,-0.5 -0.367,-0.367 -0.55,-0.85 -0.55,-1.45 v -10.1 h -17.65 v 10.1 c 0,0.6 -0.183,1.083 -0.55,1.45 -0.333,0.333 -0.783,0.5 -1.35,0.5 z m 44.729,0.25 c -2.7,0 -5.1,-0.584 -7.2,-1.75 -2.067,-1.2 -3.7,-2.85 -4.9,-4.95 -1.167,-2.1 -1.75,-4.5 -1.75,-7.2 0,-2.734 0.55,-5.134 1.65,-7.2 1.133,-2.1 2.683,-3.75 4.65,-4.95 1.966,-1.2 4.233,-1.8 6.8,-1.8 2.533,0 4.733,0.583 6.6,1.75 1.9,1.133 3.366,2.716 4.4,4.75 1.033,2.033 1.55,4.35 1.55,6.95 0,0.533 -0.167,0.966 -0.5,1.3 -0.334,0.3 -0.767,0.45 -1.3,0.45 h -20.2 c 0.2,1.8 0.75,3.4 1.65,4.8 0.9,1.366 2.083,2.45 3.55,3.25 1.466,0.766 3.133,1.15 5,1.15 1.2,0 2.4,-0.2 3.6,-0.6 1.233,-0.434 2.216,-0.967 2.95,-1.6 0.366,-0.3 0.783,-0.45 1.25,-0.45 0.466,-0.034 0.866,0.083 1.2,0.35 0.433,0.4 0.65,0.833 0.65,1.3 0.033,0.466 -0.15,0.866 -0.55,1.2 -1.1,0.933 -2.5,1.716 -4.2,2.35 -1.7,0.6 -3.334,0.9 -4.9,0.9 z m -0.75,-24.4 c -2.567,0 -4.684,0.8 -6.35,2.4 -1.667,1.566 -2.667,3.616 -3,6.15 h 18.3 c -0.267,-2.534 -1.2,-4.584 -2.8,-6.15 -1.567,-1.6 -3.617,-2.4 -6.15,-2.4 z m 21.013,35.85 c -0.6,0 -1.084,-0.184 -1.45,-0.55 -0.334,-0.334 -0.5,-0.8 -0.5,-1.4 v -23.6 c 0.033,-2.6 0.65,-4.934 1.85,-7 1.233,-2.1 2.883,-3.75 4.95,-4.95 2.1,-1.2 4.45,-1.8 7.05,-1.8 2.666,0 5.05,0.616 7.15,1.85 2.1,1.2 3.75,2.85 4.95,4.95 1.233,2.1 1.85,4.483 1.85,7.15 0,2.633 -0.6,5 -1.8,7.1 -1.167,2.1 -2.767,3.766 -4.8,5 -2.034,1.2 -4.334,1.8 -6.9,1.8 -2.234,0 -4.267,-0.467 -6.1,-1.4 -1.8,-0.967 -3.25,-2.234 -4.35,-3.8 v 14.7 c 0,0.6 -0.184,1.066 -0.55,1.4 -0.334,0.366 -0.784,0.55 -1.35,0.55 z m 11.9,-14.95 c 1.933,0 3.666,-0.45 5.2,-1.35 1.533,-0.9 2.733,-2.134 3.6,-3.7 0.9,-1.6 1.35,-3.384 1.35,-5.35 0,-2 -0.45,-3.784 -1.35,-5.35 -0.867,-1.567 -2.067,-2.8 -3.6,-3.7 -1.534,-0.934 -3.267,-1.4 -5.2,-1.4 -1.9,0 -3.617,0.466 -5.15,1.4 -1.534,0.9 -2.734,2.133 -3.6,3.7 -0.867,1.566 -1.3,3.35 -1.3,5.35 0,1.966 0.433,3.75 1.3,5.35 0.866,1.566 2.066,2.8 3.6,3.7 1.533,0.9 3.25,1.35 5.15,1.35 z"
         fill="#ffffff"
         id="path138" />
    </g>
  </g>
</svg>
