<svg width="1070" height="1069" viewBox="0 0 1070 1069" fill="none" xmlns="http://www.w3.org/2000/svg">
<path d="M675.145 697.111C549.919 797.85 382.076 818.539 294.326 730.29C206.576 642.041 264.612 491.098 357.376 377.532C485.642 204.588 546.046 305.18 633.795 393.43C721.545 481.679 978.427 453.134 675.145 697.111Z" fill="#FFBD00"/>
<path d="M332.95 554C332.383 554 331.917 553.817 331.55 553.45C331.183 553.083 331 552.617 331 552.05V516.9C331 516.333 331.183 515.867 331.55 515.5C331.917 515.133 332.383 514.95 332.95 514.95H342.95C345.417 514.95 347.6 515.5 349.5 516.6C351.4 517.667 352.883 519.15 353.95 521.05C355.017 522.95 355.55 525.15 355.55 527.65C355.55 530.083 355.017 532.25 353.95 534.15C352.883 536.017 351.4 537.5 349.5 538.6C347.6 539.667 345.417 540.2 342.95 540.2H334.9V552.05C334.9 552.617 334.717 553.083 334.35 553.45C333.983 553.817 333.517 554 332.95 554ZM334.9 536.45H342.95C344.65 536.45 346.167 536.083 347.5 535.35C348.833 534.583 349.867 533.533 350.6 532.2C351.367 530.867 351.75 529.35 351.75 527.65C351.75 525.883 351.367 524.333 350.6 523C349.867 521.667 348.833 520.617 347.5 519.85C346.167 519.083 344.65 518.7 342.95 518.7H334.9V536.45ZM372.189 554.25C369.622 554.25 367.322 553.65 365.289 552.45C363.255 551.217 361.639 549.55 360.439 547.45C359.272 545.35 358.689 542.983 358.689 540.35C358.689 537.683 359.289 535.3 360.489 533.2C361.722 531.1 363.389 529.45 365.489 528.25C367.589 527.017 369.955 526.4 372.589 526.4C375.222 526.4 377.572 527.017 379.639 528.25C381.739 529.45 383.389 531.1 384.589 533.2C385.822 535.3 386.455 537.683 386.489 540.35V552.1C386.489 552.667 386.305 553.133 385.939 553.5C385.572 553.833 385.105 554 384.539 554C383.972 554 383.505 553.833 383.139 553.5C382.772 553.133 382.589 552.667 382.589 552.1V549.05C381.455 550.65 379.989 551.917 378.189 552.85C376.389 553.783 374.389 554.25 372.189 554.25ZM372.589 550.75C374.522 550.75 376.239 550.3 377.739 549.4C379.272 548.5 380.472 547.267 381.339 545.7C382.239 544.1 382.689 542.317 382.689 540.35C382.689 538.35 382.239 536.567 381.339 535C380.472 533.433 379.272 532.2 377.739 531.3C376.239 530.367 374.522 529.9 372.589 529.9C370.689 529.9 368.972 530.367 367.439 531.3C365.905 532.2 364.689 533.433 363.789 535C362.889 536.567 362.439 538.35 362.439 540.35C362.439 542.317 362.889 544.1 363.789 545.7C364.689 547.267 365.905 548.5 367.439 549.4C368.972 550.3 370.689 550.75 372.589 550.75ZM402.627 554.45C400.46 554.45 398.41 554.033 396.477 553.2C394.543 552.333 393.093 551.267 392.127 550C391.793 549.567 391.66 549.1 391.727 548.6C391.827 548.1 392.127 547.7 392.627 547.4C392.993 547.167 393.427 547.117 393.927 547.25C394.46 547.35 394.893 547.583 395.227 547.95C396.06 548.817 397.11 549.533 398.377 550.1C399.643 550.667 401.043 550.95 402.577 550.95C404.577 550.95 406.193 550.533 407.427 549.7C408.693 548.867 409.327 547.683 409.327 546.15C409.327 544.817 408.827 543.7 407.827 542.8C406.86 541.9 405.643 541.417 404.177 541.35H401.627C400.993 541.35 400.477 541.2 400.077 540.9C399.677 540.567 399.477 540.167 399.477 539.7C399.477 539.233 399.677 538.85 400.077 538.55C400.477 538.25 400.993 538.1 401.627 538.1H404.177C405.41 538.067 406.41 537.65 407.177 536.85C407.943 536.05 408.327 535.067 408.327 533.9C408.327 532.7 407.793 531.717 406.727 530.95C405.693 530.183 404.293 529.8 402.527 529.8C400.893 529.8 399.527 530.067 398.427 530.6C397.327 531.133 396.443 531.817 395.777 532.65C395.41 533.05 394.977 533.3 394.477 533.4C394.01 533.467 393.56 533.367 393.127 533.1C392.693 532.867 392.443 532.5 392.377 532C392.343 531.5 392.493 531.033 392.827 530.6C393.893 529.367 395.243 528.333 396.877 527.5C398.543 526.667 400.41 526.25 402.477 526.25C404.343 526.25 405.993 526.583 407.427 527.25C408.893 527.883 410.043 528.767 410.877 529.9C411.71 531 412.127 532.233 412.127 533.6C412.127 535 411.677 536.233 410.777 537.3C409.91 538.333 408.777 539.083 407.377 539.55C409.077 539.883 410.46 540.667 411.527 541.9C412.593 543.133 413.127 544.583 413.127 546.25C413.127 547.817 412.66 549.217 411.727 550.45C410.827 551.683 409.577 552.667 407.977 553.4C406.41 554.1 404.627 554.45 402.627 554.45ZM421.61 565.7C421.01 565.7 420.527 565.517 420.16 565.15C419.827 564.817 419.66 564.35 419.66 563.75V540.15C419.693 537.55 420.31 535.217 421.51 533.15C422.743 531.05 424.393 529.4 426.46 528.2C428.56 527 430.91 526.4 433.51 526.4C436.177 526.4 438.56 527.017 440.66 528.25C442.76 529.45 444.41 531.1 445.61 533.2C446.843 535.3 447.46 537.683 447.46 540.35C447.46 542.983 446.86 545.35 445.66 547.45C444.493 549.55 442.893 551.217 440.86 552.45C438.827 553.65 436.527 554.25 433.96 554.25C431.727 554.25 429.693 553.783 427.86 552.85C426.06 551.883 424.61 550.617 423.51 549.05V563.75C423.51 564.35 423.327 564.817 422.96 565.15C422.627 565.517 422.177 565.7 421.61 565.7ZM433.51 550.75C435.443 550.75 437.177 550.3 438.71 549.4C440.243 548.5 441.443 547.267 442.31 545.7C443.21 544.1 443.66 542.317 443.66 540.35C443.66 538.35 443.21 536.567 442.31 535C441.443 533.433 440.243 532.2 438.71 531.3C437.177 530.367 435.443 529.9 433.51 529.9C431.61 529.9 429.893 530.367 428.36 531.3C426.827 532.2 425.627 533.433 424.76 535C423.893 536.567 423.46 538.35 423.46 540.35C423.46 542.317 423.893 544.1 424.76 545.7C425.627 547.267 426.827 548.5 428.36 549.4C429.893 550.3 431.61 550.75 433.51 550.75ZM467.062 554.25C464.495 554.25 462.195 553.65 460.162 552.45C458.128 551.217 456.512 549.55 455.312 547.45C454.145 545.35 453.562 542.983 453.562 540.35C453.562 537.683 454.162 535.3 455.362 533.2C456.595 531.1 458.262 529.45 460.362 528.25C462.462 527.017 464.828 526.4 467.462 526.4C470.095 526.4 472.445 527.017 474.512 528.25C476.612 529.45 478.262 531.1 479.462 533.2C480.695 535.3 481.328 537.683 481.362 540.35V552.1C481.362 552.667 481.178 553.133 480.812 553.5C480.445 553.833 479.978 554 479.412 554C478.845 554 478.378 553.833 478.012 553.5C477.645 553.133 477.462 552.667 477.462 552.1V549.05C476.328 550.65 474.862 551.917 473.062 552.85C471.262 553.783 469.262 554.25 467.062 554.25ZM467.462 550.75C469.395 550.75 471.112 550.3 472.612 549.4C474.145 548.5 475.345 547.267 476.212 545.7C477.112 544.1 477.562 542.317 477.562 540.35C477.562 538.35 477.112 536.567 476.212 535C475.345 533.433 474.145 532.2 472.612 531.3C471.112 530.367 469.395 529.9 467.462 529.9C465.562 529.9 463.845 530.367 462.312 531.3C460.778 532.2 459.562 533.433 458.662 535C457.762 536.567 457.312 538.35 457.312 540.35C457.312 542.317 457.762 544.1 458.662 545.7C459.562 547.267 460.778 548.5 462.312 549.4C463.845 550.3 465.562 550.75 467.462 550.75ZM487.6 540.35V540.25V540.2V536.25C487.633 531.817 488.816 527.85 491.15 524.35C493.483 520.817 497.116 518.1 502.05 516.2L509.4 513.3C510.566 512.933 511.333 513.25 511.7 514.25C511.866 514.783 511.866 515.25 511.7 515.65C511.566 516.05 511.183 516.367 510.55 516.6L502.75 519.8C498.683 521.4 495.716 523.533 493.85 526.2C491.983 528.867 490.916 531.817 490.65 535.05C491.55 532.917 492.95 531.233 494.85 530C496.75 528.733 498.966 528.1 501.5 528.1C504 528.1 506.216 528.65 508.15 529.75C510.116 530.85 511.65 532.383 512.75 534.35C513.85 536.317 514.4 538.567 514.4 541.1C514.4 543.667 513.833 545.95 512.7 547.95C511.566 549.917 510 551.467 508 552.6C506 553.7 503.7 554.25 501.1 554.25C498.466 554.25 496.133 553.65 494.1 552.45C492.066 551.25 490.466 549.617 489.3 547.55C488.166 545.45 487.6 543.05 487.6 540.35ZM501.1 550.75C502.966 550.75 504.616 550.35 506.05 549.55C507.483 548.717 508.6 547.583 509.4 546.15C510.233 544.683 510.65 543 510.65 541.1C510.65 539.233 510.233 537.583 509.4 536.15C508.6 534.717 507.483 533.6 506.05 532.8C504.616 532 502.966 531.6 501.1 531.6C499.2 531.6 497.516 532 496.05 532.8C494.583 533.6 493.433 534.717 492.6 536.15C491.8 537.583 491.4 539.233 491.4 541.1C491.4 543 491.8 544.683 492.6 546.15C493.433 547.583 494.583 548.717 496.05 549.55C497.516 550.35 499.2 550.75 501.1 550.75ZM534.405 554.25C531.738 554.25 529.355 553.65 527.255 552.45C525.155 551.25 523.505 549.6 522.305 547.5C521.105 545.4 520.505 543.017 520.505 540.35C520.505 537.65 521.105 535.25 522.305 533.15C523.505 531.05 525.155 529.4 527.255 528.2C529.355 527 531.738 526.4 534.405 526.4C537.072 526.4 539.438 527 541.505 528.2C543.605 529.4 545.255 531.05 546.455 533.15C547.655 535.25 548.272 537.65 548.305 540.35C548.305 543.017 547.688 545.4 546.455 547.5C545.255 549.6 543.605 551.25 541.505 552.45C539.438 553.65 537.072 554.25 534.405 554.25ZM534.405 550.75C536.338 550.75 538.072 550.3 539.605 549.4C541.138 548.5 542.338 547.267 543.205 545.7C544.072 544.133 544.505 542.35 544.505 540.35C544.505 538.35 544.072 536.567 543.205 535C542.338 533.4 541.138 532.15 539.605 531.25C538.072 530.35 536.338 529.9 534.405 529.9C532.472 529.9 530.738 530.35 529.205 531.25C527.672 532.15 526.455 533.4 525.555 535C524.688 536.567 524.255 538.35 524.255 540.35C524.255 542.35 524.688 544.133 525.555 545.7C526.455 547.267 527.672 548.5 529.205 549.4C530.738 550.3 532.472 550.75 534.405 550.75ZM557.743 554C557.143 554 556.66 553.833 556.293 553.5C555.96 553.133 555.793 552.667 555.793 552.1V528.6C555.793 528.033 555.96 527.567 556.293 527.2C556.66 526.833 557.143 526.65 557.743 526.65C558.31 526.65 558.76 526.833 559.093 527.2C559.46 527.567 559.643 528.033 559.643 528.6V529.7C560.576 528.633 561.676 527.817 562.943 527.25C564.21 526.65 565.61 526.35 567.143 526.35C569.01 526.35 570.66 526.767 572.093 527.6C573.56 528.433 574.726 529.583 575.593 531.05C576.526 529.583 577.776 528.433 579.343 527.6C580.91 526.767 582.66 526.35 584.593 526.35C586.56 526.35 588.293 526.817 589.793 527.75C591.326 528.683 592.51 530 593.343 531.7C594.21 533.4 594.643 535.4 594.643 537.7V552.1C594.643 552.667 594.46 553.133 594.093 553.5C593.76 553.833 593.31 554 592.743 554C592.176 554 591.71 553.833 591.343 553.5C590.976 553.133 590.793 552.667 590.793 552.1V537.7C590.793 535.333 590.176 533.467 588.943 532.1C587.71 530.7 586.126 530 584.193 530C582.126 530 580.426 530.7 579.093 532.1C577.793 533.467 577.16 535.3 577.193 537.6V537.7V552.1C577.193 552.667 577.01 553.133 576.643 553.5C576.31 553.833 575.86 554 575.293 554C574.726 554 574.26 553.833 573.893 553.5C573.526 553.133 573.343 552.667 573.343 552.1V537.7C573.343 535.333 572.726 533.467 571.493 532.1C570.26 530.7 568.676 530 566.743 530C564.676 530 562.976 530.683 561.643 532.05C560.31 533.383 559.643 535.133 559.643 537.3V552.1C559.643 552.667 559.46 553.133 559.093 553.5C558.76 553.833 558.31 554 557.743 554ZM612.106 545.55C608.473 545.55 605.69 544.45 603.756 542.25C601.856 540.017 600.906 537.05 600.906 533.35V528.6C600.906 528 601.073 527.533 601.406 527.2C601.773 526.833 602.256 526.65 602.856 526.65C603.423 526.65 603.873 526.833 604.206 527.2C604.573 527.533 604.756 528 604.756 528.6V533.35C604.756 535.983 605.39 538.067 606.656 539.6C607.956 541.133 609.906 541.9 612.506 541.9C614.606 541.9 616.306 541.533 617.606 540.8C618.94 540.033 619.606 539.067 619.606 537.9V528.6C619.606 528 619.773 527.533 620.106 527.2C620.473 526.833 620.956 526.65 621.556 526.65C622.123 526.65 622.573 526.833 622.906 527.2C623.273 527.533 623.456 528 623.456 528.6V552.05C623.456 552.65 623.273 553.133 622.906 553.5C622.573 553.833 622.123 554 621.556 554C620.956 554 620.473 553.833 620.106 553.5C619.773 553.133 619.606 552.65 619.606 552.05V542.65C618.773 543.55 617.706 544.267 616.406 544.8C615.106 545.3 613.673 545.55 612.106 545.55ZM644.353 554.3C641.986 554.3 639.87 553.817 638.003 552.85C636.136 551.85 634.653 550.4 633.553 548.5C632.486 546.6 631.953 544.283 631.953 541.55V528.55C631.953 528.017 632.136 527.567 632.503 527.2C632.87 526.833 633.32 526.65 633.853 526.65C634.42 526.65 634.886 526.833 635.253 527.2C635.62 527.567 635.803 528.017 635.803 528.55V541.55C635.803 544.617 636.653 546.9 638.353 548.4C640.053 549.9 642.186 550.65 644.753 550.65C646.386 550.65 647.853 550.333 649.153 549.7C650.486 549.067 651.536 548.2 652.303 547.1C653.07 546 653.453 544.75 653.453 543.35V528.55C653.453 527.983 653.62 527.533 653.953 527.2C654.32 526.833 654.786 526.65 655.353 526.65C655.92 526.65 656.386 526.833 656.753 527.2C657.12 527.533 657.303 527.983 657.303 528.55V552.05C657.303 552.65 657.12 553.133 656.753 553.5C656.386 553.833 655.92 554 655.353 554C654.786 554 654.32 553.833 653.953 553.5C653.62 553.133 653.453 552.65 653.453 552.05V550.35C652.353 551.583 651.02 552.55 649.453 553.25C647.886 553.95 646.186 554.3 644.353 554.3ZM668.141 554C667.574 554 667.124 553.833 666.791 553.5C666.458 553.133 666.291 552.667 666.291 552.1V528.6C666.291 528 666.458 527.533 666.791 527.2C667.124 526.833 667.574 526.65 668.141 526.65C668.741 526.65 669.208 526.833 669.541 527.2C669.908 527.533 670.091 528 670.091 528.6V538.5H674.541L684.391 527.25C684.724 526.883 685.141 526.683 685.641 526.65C686.141 526.617 686.574 526.75 686.941 527.05C687.341 527.417 687.558 527.833 687.591 528.3C687.624 528.733 687.474 529.15 687.141 529.55L677.741 540.15L687.641 551.05C687.974 551.417 688.141 551.833 688.141 552.3C688.141 552.733 687.941 553.133 687.541 553.5C687.208 553.833 686.758 554 686.191 554C685.658 554 685.224 553.817 684.891 553.45L674.491 542H670.091V552.1C670.091 552.667 669.908 553.133 669.541 553.5C669.208 553.833 668.741 554 668.141 554Z" fill="white"/>
</svg>
