<svg width="409" height="154" viewBox="0 0 409 154" fill="none" xmlns="http://www.w3.org/2000/svg">
<path d="M0 0H389C400.046 0 409 8.95431 409 20V134C409 145.046 400.046 154 389 154H0V0Z" fill="white"/>
<path d="M119.986 107.619L135.39 127.698L188.92 57.8068H158.496L119.986 107.619Z" fill="black"/>
<path d="M116.905 49.6978L100.731 27.3016H172.745L192 49.6978H116.905Z" fill="black"/>
<path d="M223.57 100V89.6484H236.383V58.5156H223.57V48.1641H243.297L253.688 58.5156V89.6484L243.297 100H223.57ZM203.57 48.1641H220.836V100H203.57V48.1641ZM307.359 89.6484L297.008 100H285.445V90.3125H289.742V68.8672H285.445V58.5156H297.008L307.359 68.8672V89.6484ZM278.219 90.3125H282.711V100H271.109L260.758 89.6484V68.8672L271.109 58.5156H282.711V68.8672H278.219V90.3125ZM327.672 83.5156L310.094 48.1641H327.047L344.977 84.7266V100H327.672V83.5156ZM346.07 81.0938L337.672 64.0625L346.188 48.1641H362.789L346.07 81.0938Z" fill="black"/>
</svg>
