<?xml version="1.0" encoding="UTF-8" standalone="no"?>
<svg
   xmlns:dc="http://purl.org/dc/elements/1.1/"
   xmlns:cc="http://creativecommons.org/ns#"
   xmlns:rdf="http://www.w3.org/1999/02/22-rdf-syntax-ns#"
   xmlns:svg="http://www.w3.org/2000/svg"
   xmlns="http://www.w3.org/2000/svg"
   xmlns:sodipodi="http://sodipodi.sourceforge.net/DTD/sodipodi-0.dtd"
   xmlns:inkscape="http://www.inkscape.org/namespaces/inkscape"
   width="150.28337mm"
   height="133.0854mm"
   viewBox="0 0 150.28337 133.0854"
   version="1.1"
   id="svg70"
   inkscape:version="1.0.2-2 (e86c870879, 2021-01-15)"
   sodipodi:docname="разраб.svg">
  <defs
     id="defs64" />
  <sodipodi:namedview
     id="base"
     pagecolor="#ffffff"
     bordercolor="#666666"
     borderopacity="1.0"
     inkscape:pageopacity="0.0"
     inkscape:pageshadow="2"
     inkscape:zoom="0.98994949"
     inkscape:cx="359.20924"
     inkscape:cy="280.02695"
     inkscape:document-units="mm"
     inkscape:current-layer="layer1"
     inkscape:document-rotation="0"
     showgrid="false"
     inkscape:window-width="1710"
     inkscape:window-height="1032"
     inkscape:window-x="128"
     inkscape:window-y="0"
     inkscape:window-maximized="0" />
  <metadata
     id="metadata67">
    <rdf:RDF>
      <cc:Work
         rdf:about="">
        <dc:format>image/svg+xml</dc:format>
        <dc:type
           rdf:resource="http://purl.org/dc/dcmitype/StillImage" />
        <dc:title></dc:title>
      </cc:Work>
    </rdf:RDF>
  </metadata>
  <g
     inkscape:label="Слой 1"
     inkscape:groupmode="layer"
     id="layer1"
     transform="translate(-31.447597,-77.844201)">
    <path
       d="m 143.66933,187.41102 c -33.13271,26.65386 -77.54117,32.12782 -100.758357,8.77861 -23.217187,-23.34921 -7.861829,-63.28622 16.681979,-93.33389 33.937046,-45.758098 49.918938,-19.143128 73.135858,4.20635 23.21719,23.34921 91.18388,15.79668 10.94052,80.34893 z"
       fill="#ffbd00"
       id="path38"
       style="stroke-width:0.264583" />
    <path
       d="m 53.13024,149.54623 c -0.150019,0 -0.273315,-0.0484 -0.370417,-0.14552 -0.0971,-0.0971 -0.145521,-0.22039 -0.145521,-0.37041 v -9.30011 c 0,-0.15002 0.04842,-0.27331 0.145521,-0.37041 0.0971,-0.0971 0.220398,-0.14552 0.370417,-0.14552 h 2.645833 c 0.652727,0 1.230313,0.14552 1.733021,0.43656 0.502708,0.28231 0.895085,0.67469 1.177396,1.17739 0.28231,0.50271 0.423333,1.0848 0.423333,1.74625 0,0.64374 -0.141023,1.21709 -0.423333,1.7198 -0.282311,0.49397 -0.674688,0.88635 -1.177396,1.17739 -0.502708,0.28231 -1.080294,0.42333 -1.733021,0.42333 h -2.129896 v 3.13532 c 0,0.15002 -0.04842,0.27331 -0.145521,0.37041 -0.0971,0.0971 -0.220398,0.14552 -0.370416,0.14552 z m 0.515937,-4.64343 h 2.129896 c 0.449792,0 0.851165,-0.0971 1.203854,-0.29104 0.35269,-0.20294 0.626269,-0.48075 0.820208,-0.83344 0.202936,-0.35269 0.304271,-0.75406 0.304271,-1.20386 0,-0.46751 -0.101335,-0.87762 -0.304271,-1.23031 -0.193939,-0.35269 -0.467518,-0.6305 -0.820208,-0.83344 -0.352689,-0.20293 -0.754062,-0.30427 -1.203854,-0.30427 h -2.129896 z m 9.866048,4.70958 c -0.679185,0 -1.287727,-0.15875 -1.825625,-0.47625 -0.538162,-0.32623 -0.965729,-0.76729 -1.283229,-1.32292 -0.308769,-0.55562 -0.463021,-1.18189 -0.463021,-1.87854 0,-0.70564 0.15875,-1.33614 0.47625,-1.89177 0.326231,-0.55562 0.767292,-0.99219 1.322917,-1.30969 0.555625,-0.32623 1.181629,-0.48948 1.878541,-0.48948 0.696648,0 1.318419,0.16325 1.865313,0.48948 0.555625,0.3175 0.992187,0.75407 1.309687,1.30969 0.326232,0.55563 0.493713,1.18613 0.502709,1.89177 v 3.10886 c 0,0.15002 -0.04868,0.27331 -0.145521,0.37041 -0.0971,0.0881 -0.220663,0.13229 -0.370417,0.13229 -0.150019,0 -0.273579,-0.0442 -0.370417,-0.13229 -0.0971,-0.0971 -0.14552,-0.22039 -0.14552,-0.37041 v -0.80698 c -0.300038,0.42333 -0.687917,0.75856 -1.164167,1.00541 -0.47625,0.24686 -1.005417,0.37042 -1.5875,0.37042 z m 0.105833,-0.92604 c 0.51144,0 0.965729,-0.11906 1.362604,-0.35719 0.405607,-0.23812 0.723107,-0.56435 0.9525,-0.97896 0.238125,-0.42333 0.357188,-0.89508 0.357188,-1.41552 0,-0.52916 -0.119063,-1.00092 -0.357188,-1.41552 -0.229393,-0.4146 -0.546893,-0.74083 -0.9525,-0.97896 -0.396875,-0.24685 -0.851164,-0.37041 -1.362604,-0.37041 -0.502708,0 -0.956998,0.12356 -1.362604,0.37041 -0.405871,0.23813 -0.727604,0.56436 -0.965729,0.97896 -0.238125,0.4146 -0.357187,0.88636 -0.357187,1.41552 0,0.52044 0.119062,0.99219 0.357187,1.41552 0.238125,0.41461 0.559858,0.74084 0.965729,0.97896 0.405606,0.23813 0.859896,0.35719 1.362604,0.35719 z m 7.947554,0.97896 c -0.573352,0 -1.115747,-0.11033 -1.627187,-0.33073 -0.511704,-0.2294 -0.89535,-0.51144 -1.150938,-0.84667 -0.08837,-0.11456 -0.12356,-0.23812 -0.105833,-0.37042 0.02646,-0.13229 0.105833,-0.23812 0.238125,-0.3175 0.09684,-0.0616 0.211667,-0.0749 0.343958,-0.0397 0.141023,0.0265 0.255588,0.0881 0.343959,0.18521 0.220398,0.22939 0.49821,0.41883 0.833437,0.56885 0.334963,0.15002 0.705379,0.2249 1.11125,0.2249 0.529167,0 0.956734,-0.11034 1.283229,-0.33073 0.334963,-0.2204 0.502709,-0.53367 0.502709,-0.93927 0,-0.35269 -0.132292,-0.64823 -0.396875,-0.88636 -0.255852,-0.23812 -0.57785,-0.36592 -0.965729,-0.38364 h -0.674688 c -0.167746,0 -0.304271,-0.0397 -0.410104,-0.11907 -0.105833,-0.0881 -0.15875,-0.19394 -0.15875,-0.3175 0,-0.12356 0.05292,-0.22489 0.15875,-0.30427 0.105833,-0.0794 0.242358,-0.11906 0.410104,-0.11906 h 0.674688 c 0.326231,-0.009 0.590814,-0.11906 0.79375,-0.33073 0.20267,-0.21167 0.30427,-0.47175 0.30427,-0.78052 0,-0.3175 -0.141287,-0.57759 -0.423333,-0.78052 -0.273579,-0.20294 -0.643996,-0.30427 -1.11125,-0.30427 -0.432329,0 -0.79375,0.0706 -1.084792,0.21166 -0.291041,0.14103 -0.524933,0.322 -0.701145,0.5424 -0.0971,0.10583 -0.211667,0.17198 -0.343959,0.19844 -0.12356,0.0177 -0.242623,-0.009 -0.357187,-0.0794 -0.114829,-0.0616 -0.180975,-0.15875 -0.198438,-0.29104 -0.009,-0.13229 0.03069,-0.25585 0.119063,-0.37042 0.282046,-0.32623 0.639233,-0.59981 1.071562,-0.8202 0.440796,-0.2204 0.934773,-0.33073 1.481667,-0.33073 0.493712,0 0.930275,0.0881 1.309687,0.26458 0.38788,0.16748 0.69215,0.40137 0.912813,0.70115 0.220398,0.29104 0.330729,0.61727 0.330729,0.97895 0,0.37042 -0.119062,0.69665 -0.357187,0.97896 -0.229394,0.27332 -0.529167,0.47176 -0.899584,0.59532 0.449792,0.0881 0.815711,0.29554 1.098021,0.62177 0.282046,0.32623 0.423333,0.70987 0.423333,1.15093 0,0.41461 -0.12356,0.78502 -0.370416,1.11125 -0.238125,0.32624 -0.568854,0.58659 -0.992188,0.78052 -0.414602,0.18521 -0.886354,0.27782 -1.415521,0.27782 z m 5.022586,2.97656 c -0.15875,0 -0.286544,-0.0484 -0.383646,-0.14552 -0.08811,-0.0881 -0.132292,-0.21167 -0.132292,-0.37042 v -6.24416 c 0.0087,-0.68792 0.171979,-1.30519 0.489479,-1.85209 0.326232,-0.55562 0.762794,-0.99219 1.309688,-1.30969 0.555625,-0.3175 1.177396,-0.47625 1.865312,-0.47625 0.705644,0 1.336146,0.16325 1.891771,0.48948 0.555625,0.3175 0.992188,0.75407 1.309688,1.30969 0.326231,0.55563 0.489479,1.18613 0.489479,1.89177 0,0.69665 -0.15875,1.32292 -0.47625,1.87854 -0.308769,0.55563 -0.732102,0.99669 -1.27,1.32292 -0.537898,0.3175 -1.14644,0.47625 -1.825625,0.47625 -0.590815,0 -1.128977,-0.12356 -1.613958,-0.37042 -0.47625,-0.25585 -0.859896,-0.59081 -1.150938,-1.00541 v 3.88937 c 0,0.15875 -0.04842,0.28231 -0.145521,0.37042 -0.08811,0.0971 -0.207168,0.14552 -0.357187,0.14552 z m 3.148541,-3.95552 c 0.51144,0 0.970227,-0.11906 1.375834,-0.35719 0.405606,-0.23812 0.723106,-0.56435 0.9525,-0.97896 0.238125,-0.42333 0.357187,-0.89508 0.357187,-1.41552 0,-0.52916 -0.119062,-1.00092 -0.357187,-1.41552 -0.229394,-0.4146 -0.546894,-0.74083 -0.9525,-0.97896 -0.405607,-0.24685 -0.864394,-0.37041 -1.375834,-0.37041 -0.502708,0 -0.956998,0.12356 -1.362604,0.37041 -0.405606,0.23813 -0.723106,0.56436 -0.9525,0.97896 -0.229393,0.4146 -0.343958,0.88636 -0.343958,1.41552 0,0.52044 0.114565,0.99219 0.343958,1.41552 0.229394,0.41461 0.546894,0.74084 0.9525,0.97896 0.405606,0.23813 0.859896,0.35719 1.362604,0.35719 z m 8.8773,0.92604 c -0.679185,0 -1.287727,-0.15875 -1.825625,-0.47625 -0.538162,-0.32623 -0.965729,-0.76729 -1.283229,-1.32292 -0.308769,-0.55562 -0.463021,-1.18189 -0.463021,-1.87854 0,-0.70564 0.15875,-1.33614 0.47625,-1.89177 0.326232,-0.55562 0.767292,-0.99219 1.322917,-1.30969 0.555625,-0.32623 1.181629,-0.48948 1.878542,-0.48948 0.696648,0 1.318418,0.16325 1.865312,0.48948 0.555625,0.3175 0.992188,0.75407 1.309688,1.30969 0.326231,0.55563 0.493712,1.18613 0.502708,1.89177 v 3.10886 c 0,0.15002 -0.04868,0.27331 -0.145521,0.37041 -0.0971,0.0881 -0.220662,0.13229 -0.370417,0.13229 -0.150018,0 -0.273579,-0.0442 -0.370416,-0.13229 -0.0971,-0.0971 -0.145521,-0.22039 -0.145521,-0.37041 v -0.80698 c -0.300038,0.42333 -0.687917,0.75856 -1.164167,1.00541 -0.47625,0.24686 -1.005416,0.37042 -1.5875,0.37042 z m 0.105834,-0.92604 c 0.511439,0 0.965729,-0.11906 1.362604,-0.35719 0.405606,-0.23812 0.723106,-0.56435 0.9525,-0.97896 0.238125,-0.42333 0.357187,-0.89508 0.357187,-1.41552 0,-0.52916 -0.119062,-1.00092 -0.357187,-1.41552 -0.229394,-0.4146 -0.546894,-0.74083 -0.9525,-0.97896 -0.396875,-0.24685 -0.851165,-0.37041 -1.362604,-0.37041 -0.502709,0 -0.956998,0.12356 -1.362605,0.37041 -0.40587,0.23813 -0.727604,0.56436 -0.965729,0.97896 -0.238125,0.4146 -0.357187,0.88636 -0.357187,1.41552 0,0.52044 0.119062,0.99219 0.357187,1.41552 0.238125,0.41461 0.559859,0.74084 0.965729,0.97896 0.405607,0.23813 0.859896,0.35719 1.362605,0.35719 z m 5.328179,-2.75167 v -0.0265 -0.0132 -1.0451 c 0.0087,-1.1729 0.321733,-2.2225 0.939271,-3.14854 0.617272,-0.93477 1.578504,-1.65365 2.883958,-2.15636 l 1.944687,-0.76729 c 0.308502,-0.0971 0.511442,-0.0132 0.608542,0.25136 0.0439,0.14102 0.0439,0.26458 0,0.37041 -0.0354,0.10584 -0.13679,0.18971 -0.30427,0.25136 l -2.063751,0.84666 c -1.07606,0.42334 -1.861079,0.98769 -2.354791,1.69334 -0.493978,0.70564 -0.776288,1.48616 -0.846667,2.34156 0.238125,-0.56436 0.608542,-1.00991 1.11125,-1.33615 0.502708,-0.33522 1.089025,-0.5027 1.759479,-0.5027 0.661458,0 1.247775,0.14552 1.759479,0.43656 0.520171,0.29104 0.926041,0.69665 1.217081,1.21708 0.29104,0.52044 0.43657,1.11575 0.43657,1.78594 0,0.67919 -0.15002,1.28323 -0.4498,1.8124 -0.30003,0.52043 -0.714372,0.93054 -1.243538,1.23031 -0.529167,0.29104 -1.137709,0.43656 -1.825625,0.43656 -0.696913,0 -1.314186,-0.15875 -1.852084,-0.47625 -0.538162,-0.3175 -0.961495,-0.74956 -1.27,-1.29646 -0.300037,-0.55562 -0.449791,-1.19062 -0.449791,-1.905 z m 3.571875,2.75167 c 0.493712,0 0.930275,-0.10583 1.309687,-0.3175 0.379148,-0.2204 0.674688,-0.52044 0.886354,-0.89958 0.220402,-0.38815 0.330732,-0.83344 0.330732,-1.33615 0,-0.49398 -0.11033,-0.93054 -0.330732,-1.30969 -0.211666,-0.37915 -0.507206,-0.67469 -0.886354,-0.88635 -0.379412,-0.21167 -0.815975,-0.3175 -1.309687,-0.3175 -0.502709,0 -0.948267,0.10583 -1.336146,0.3175 -0.388144,0.21166 -0.692415,0.5072 -0.912813,0.88635 -0.211666,0.37915 -0.3175,0.81571 -0.3175,1.30969 0,0.50271 0.105834,0.948 0.3175,1.33615 0.220398,0.37914 0.524669,0.67918 0.912813,0.89958 0.387879,0.21167 0.833437,0.3175 1.336146,0.3175 z m 8.811943,0.92604 c -0.70564,0 -1.33614,-0.15875 -1.89177,-0.47625 -0.55562,-0.3175 -0.99218,-0.75406 -1.30968,-1.30969 -0.3175,-0.55562 -0.47625,-1.18612 -0.47625,-1.89177 0,-0.71437 0.15875,-1.34937 0.47625,-1.905 0.3175,-0.55562 0.75406,-0.99219 1.30968,-1.30969 0.55563,-0.3175 1.18613,-0.47625 1.89177,-0.47625 0.70565,0 1.33165,0.15875 1.87855,0.47625 0.55562,0.3175 0.99218,0.75407 1.30968,1.30969 0.3175,0.55563 0.48075,1.19063 0.48948,1.905 0,0.70565 -0.16324,1.33615 -0.48948,1.89177 -0.3175,0.55563 -0.75406,0.99219 -1.30968,1.30969 -0.5469,0.3175 -1.1729,0.47625 -1.87855,0.47625 z m 0,-0.92604 c 0.51144,0 0.97023,-0.11906 1.37584,-0.35719 0.4056,-0.23812 0.7231,-0.56435 0.9525,-0.97896 0.22939,-0.4146 0.34396,-0.88635 0.34396,-1.41552 0,-0.52916 -0.11457,-1.00092 -0.34396,-1.41552 -0.2294,-0.42333 -0.5469,-0.75406 -0.9525,-0.99219 -0.40561,-0.23812 -0.8644,-0.35718 -1.37584,-0.35718 -0.51143,0 -0.97022,0.11906 -1.37583,0.35718 -0.4056,0.23813 -0.7276,0.56886 -0.96573,0.99219 -0.22939,0.4146 -0.34396,0.88636 -0.34396,1.41552 0,0.52917 0.11457,1.00092 0.34396,1.41552 0.23813,0.41461 0.56013,0.74084 0.96573,0.97896 0.40561,0.23813 0.8644,0.35719 1.37583,0.35719 z m 6.17485,0.85989 c -0.15875,0 -0.28654,-0.0442 -0.38365,-0.13229 -0.0881,-0.0971 -0.13229,-0.22039 -0.13229,-0.37041 v -6.21771 c 0,-0.15002 0.0442,-0.27332 0.13229,-0.37042 0.0971,-0.0971 0.2249,-0.14552 0.38365,-0.14552 0.15002,0 0.26908,0.0484 0.35719,0.14552 0.0971,0.0971 0.14552,0.2204 0.14552,0.37042 v 0.29104 c 0.24686,-0.28231 0.5379,-0.49821 0.87312,-0.64823 0.33523,-0.15875 0.70565,-0.23812 1.11125,-0.23812 0.49398,0 0.93054,0.11033 1.30969,0.33072 0.38814,0.2204 0.69665,0.52467 0.92604,0.91282 0.24686,-0.38815 0.57759,-0.69242 0.99219,-0.91282 0.4146,-0.22039 0.87762,-0.33072 1.38906,-0.33072 0.52044,0 0.97896,0.12356 1.37583,0.37041 0.40561,0.24686 0.71888,0.59531 0.93927,1.04511 0.2294,0.44979 0.34396,0.97895 0.34396,1.5875 v 3.81 c 0,0.15002 -0.0484,0.27331 -0.14552,0.37041 -0.0881,0.0881 -0.20717,0.13229 -0.35719,0.13229 -0.15001,0 -0.27331,-0.0442 -0.37041,-0.13229 -0.0971,-0.0971 -0.14552,-0.22039 -0.14552,-0.37041 v -3.81 c 0,-0.62627 -0.16325,-1.11998 -0.48948,-1.48167 -0.32623,-0.37042 -0.74533,-0.55563 -1.25677,-0.55563 -0.5469,0 -0.99669,0.18521 -1.34938,0.55563 -0.34396,0.36169 -0.51144,0.84667 -0.50271,1.45521 v 0.0265 3.81 c 0,0.15002 -0.0484,0.27331 -0.14552,0.37041 -0.0881,0.0881 -0.20717,0.13229 -0.35718,0.13229 -0.15002,0 -0.27332,-0.0442 -0.37042,-0.13229 -0.0971,-0.0971 -0.14552,-0.22039 -0.14552,-0.37041 v -3.81 c 0,-0.62627 -0.16325,-1.11998 -0.48948,-1.48167 -0.32623,-0.37042 -0.74533,-0.55563 -1.25677,-0.55563 -0.54689,0 -0.99668,0.18072 -1.34937,0.5424 -0.35269,0.35269 -0.52917,0.81571 -0.52917,1.38906 v 3.91584 c 0,0.15002 -0.0484,0.27331 -0.14552,0.37041 -0.0881,0.0881 -0.20717,0.13229 -0.35719,0.13229 z m 14.38354,-2.23572 c -0.96123,0 -1.69756,-0.29105 -2.20927,-0.87313 -0.50271,-0.59081 -0.75406,-1.37583 -0.75406,-2.35479 v -1.25677 c 0,-0.15875 0.0442,-0.28231 0.13229,-0.37042 0.0971,-0.0971 0.2249,-0.14552 0.38365,-0.14552 0.15001,0 0.26908,0.0484 0.35718,0.14552 0.0971,0.0881 0.14552,0.21167 0.14552,0.37042 v 1.25677 c 0,0.69665 0.16775,1.24804 0.50271,1.65364 0.34396,0.40561 0.8599,0.60855 1.54782,0.60855 0.55562,0 1.00541,-0.0971 1.34937,-0.29105 0.35295,-0.20293 0.52917,-0.45852 0.52917,-0.76729 v -2.46062 c 0,-0.15875 0.0442,-0.28231 0.13229,-0.37042 0.0971,-0.0971 0.22489,-0.14552 0.38364,-0.14552 0.15002,0 0.26909,0.0484 0.35719,0.14552 0.0971,0.0881 0.14552,0.21167 0.14552,0.37042 v 6.20448 c 0,0.15875 -0.0484,0.28654 -0.14552,0.38364 -0.0881,0.0881 -0.20717,0.13229 -0.35719,0.13229 -0.15875,0 -0.28654,-0.0442 -0.38364,-0.13229 -0.0881,-0.0971 -0.13229,-0.22489 -0.13229,-0.38364 v -2.48709 c -0.2204,0.23813 -0.50271,0.42784 -0.84667,0.56886 -0.34396,0.13229 -0.72311,0.19844 -1.13771,0.19844 z m 8.53202,2.3151 c -0.62627,0 -1.18613,-0.12779 -1.6801,-0.38365 -0.49398,-0.26458 -0.88636,-0.64823 -1.1774,-1.15093 -0.28231,-0.50271 -0.42333,-1.11575 -0.42333,-1.83886 v -3.43958 c 0,-0.14102 0.0484,-0.26009 0.14552,-0.35719 0.0971,-0.0971 0.21616,-0.14552 0.35719,-0.14552 0.15001,0 0.27331,0.0484 0.37041,0.14552 0.0971,0.0971 0.14552,0.21617 0.14552,0.35719 v 3.43958 c 0,0.81148 0.2249,1.41552 0.67469,1.8124 0.44979,0.39687 1.01415,0.59531 1.69333,0.59531 0.43207,0 0.82021,-0.0839 1.16417,-0.25135 0.35269,-0.16748 0.6305,-0.39688 0.83344,-0.68792 0.20293,-0.29104 0.30427,-0.62177 0.30427,-0.99219 v -3.91583 c 0,-0.15002 0.0442,-0.26908 0.13229,-0.35719 0.0971,-0.0971 0.2204,-0.14552 0.37042,-0.14552 0.15002,0 0.27331,0.0484 0.37041,0.14552 0.0971,0.0881 0.14552,0.20717 0.14552,0.35719 v 6.21771 c 0,0.15875 -0.0484,0.28654 -0.14552,0.38364 -0.0971,0.0881 -0.22039,0.13229 -0.37041,0.13229 -0.15002,0 -0.27332,-0.0442 -0.37042,-0.13229 -0.0881,-0.0971 -0.13229,-0.22489 -0.13229,-0.38364 v -0.44979 c -0.29104,0.32623 -0.64373,0.58208 -1.05833,0.76729 -0.41461,0.18521 -0.8644,0.27781 -1.34938,0.27781 z m 6.29391,-0.0794 c -0.15002,0 -0.26908,-0.0442 -0.35719,-0.13229 -0.0881,-0.0971 -0.13229,-0.22039 -0.13229,-0.37041 v -6.21771 c 0,-0.15875 0.0442,-0.28231 0.13229,-0.37042 0.0881,-0.0971 0.20717,-0.14552 0.35719,-0.14552 0.15875,0 0.28231,0.0484 0.37042,0.14552 0.0971,0.0881 0.14552,0.21167 0.14552,0.37042 v 2.61937 h 1.17739 l 2.60615,-2.97656 c 0.0881,-0.0971 0.19844,-0.15002 0.33073,-0.15875 0.13229,-0.009 0.24685,0.0265 0.34396,0.10583 0.10583,0.0971 0.16324,0.20717 0.17197,0.33073 0.009,0.11457 -0.0309,0.2249 -0.11906,0.33073 l -2.48708,2.80459 2.61937,2.88395 c 0.0881,0.0971 0.1323,0.20717 0.1323,0.33073 0,0.11457 -0.0529,0.2204 -0.15875,0.3175 -0.0881,0.0881 -0.20717,0.13229 -0.35719,0.13229 -0.14103,0 -0.25585,-0.0484 -0.34396,-0.14552 l -2.75167,-3.02948 h -1.16416 v 2.6723 c 0,0.15002 -0.0484,0.27331 -0.14552,0.37041 -0.0881,0.0881 -0.21167,0.13229 -0.37042,0.13229 z"
       fill="#ffffff"
       id="path40"
       style="stroke-width:0.264583" />
  </g>
</svg>
